<?xml version="1.0" standalone="no"?>
<!DOCTYPE svg PUBLIC "-//W3C//DTD SVG 20010904//EN"
 "http://www.w3.org/TR/2001/REC-SVG-20010904/DTD/svg10.dtd">
<svg version="1.0" xmlns="http://www.w3.org/2000/svg"
 width="706.000000pt" height="593.000000pt" viewBox="0 0 706.000000 593.000000"
 preserveAspectRatio="xMidYMid meet">

<g transform="translate(0.000000,593.000000) scale(0.100000,-0.100000)"
fill="#000000" stroke="none">
<path d="M0 2965 l0 -2965 3530 0 3530 0 0 2965 0 2965 -3530 0 -3530 0 0
-2965z m3641 2145 c138 -14 322 -52 441 -90 118 -39 348 -153 483 -241 218
-143 438 -359 570 -563 48 -73 175 -310 175 -325 0 -3 -40 -6 -89 -6 l-89 0
-34 65 c-65 129 -205 325 -300 422 -289 294 -615 475 -1000 555 -122 25 -152
27 -353 28 -192 0 -235 -3 -340 -24 -221 -44 -375 -95 -540 -179 -133 -67
-167 -90 -316 -209 -206 -164 -360 -347 -487 -579 -27 -49 -53 -88 -59 -87 -6
1 -47 3 -91 4 l-80 2 15 36 c93 222 318 524 514 689 98 82 285 210 390 266
249 132 511 208 819 239 80 8 275 6 371 -3z m-182 -994 c30 -16 91 -80 91 -97
0 -22 -31 -68 -59 -88 -19 -14 -45 -21 -75 -21 -39 0 -51 5 -81 35 -49 49 -48
88 3 137 53 51 75 57 121 34z m-433 -17 c42 -26 54 -47 54 -94 0 -50 -53 -105
-100 -105 -43 0 -96 27 -120 60 -26 36 -25 56 2 96 44 65 104 80 164 43z m891
10 c44 -16 93 -69 93 -100 0 -64 -85 -117 -154 -98 -39 11 -86 60 -86 91 0 27
36 76 74 99 36 22 36 22 73 8z m1833 -479 l0 -60 -105 0 -105 0 0 -325 0 -325
105 0 105 0 0 -60 0 -60 -275 0 -275 0 0 60 0 60 105 0 105 0 0 325 0 325
-105 0 -105 0 0 60 0 60 275 0 275 0 0 -60z m689 -367 c68 -236 126 -436 129
-445 4 -16 -4 -18 -61 -18 l-66 0 -12 43 c-6 23 -19 71 -29 107 l-16 65 -157
3 -156 3 -15 -53 c-8 -29 -22 -79 -31 -110 l-16 -58 -66 0 c-57 0 -65 2 -61
18 3 9 61 209 129 445 l124 427 90 0 91 0 123 -427z m-3822 179 c107 -55 160
-196 141 -379 -12 -119 -65 -205 -154 -249 -54 -26 -203 -27 -256 -1 -52 26
-101 77 -129 133 -22 45 -24 61 -24 184 1 148 12 189 70 258 72 86 239 111
352 54z m792 -10 c20 -15 46 -48 59 -73 21 -42 23 -62 29 -302 l6 -257 -71 0
-72 0 0 238 c0 217 -2 240 -20 269 -31 52 -116 63 -189 24 -12 -7 -31 -31 -42
-54 -16 -37 -19 -68 -19 -259 l0 -218 -70 0 -70 0 0 330 0 330 65 0 65 0 0
-44 c0 -72 11 -86 29 -36 20 54 53 79 117 88 72 11 141 -3 183 -36z m708 10
c107 -55 160 -196 141 -379 -12 -119 -65 -205 -154 -249 -54 -26 -203 -27
-256 -1 -52 26 -101 77 -129 133 -22 45 -24 61 -24 184 1 148 12 189 70 258
72 86 239 111 352 54z m-3036 18 c45 -13 114 -72 138 -119 24 -46 41 -136 41
-213 l0 -58 -226 0 -225 0 6 -22 c25 -83 112 -140 217 -141 35 -1 89 2 120 7
l57 7 5 -33 c14 -83 14 -81 -29 -91 -22 -5 -92 -7 -155 -5 -97 3 -124 8 -170
29 -70 32 -116 79 -149 149 -23 48 -26 68 -26 160 0 168 49 265 159 316 56 26
169 33 237 14z m847 -21 c61 -30 108 -79 99 -102 -2 -7 -25 -27 -50 -45 l-46
-33 -15 24 c-27 41 -93 70 -156 70 -129 -2 -199 -92 -187 -241 6 -80 45 -146
102 -176 35 -18 57 -21 177 -20 l136 0 7 -54 c4 -29 4 -56 1 -59 -3 -3 -66 -8
-139 -11 -117 -4 -143 -2 -203 16 -87 26 -143 73 -181 149 -36 75 -45 223 -18
305 46 145 141 206 321 207 82 1 97 -2 152 -30z m2812 11 c12 -12 25 -33 31
-48 l11 -27 13 31 c7 17 23 39 36 48 31 21 117 21 148 0 47 -33 51 -63 51
-369 l0 -285 -65 0 -65 0 0 259 c0 149 -4 271 -10 286 -9 23 -15 26 -47 23
-60 -5 -63 -17 -63 -310 l0 -258 -55 0 -55 0 0 266 c0 164 -4 273 -10 285 -8
13 -21 19 -46 19 -59 0 -64 -27 -64 -320 l0 -250 -65 0 -65 0 0 330 0 330 60
0 60 0 0 -34 c0 -35 20 -63 20 -29 1 43 46 72 113 73 34 0 52 -5 67 -20z m570
-1104 c0 -10 -115 -225 -143 -266 -77 -115 -150 -202 -266 -319 -420 -423
-984 -639 -1586 -610 -198 10 -281 24 -471 80 -318 92 -537 216 -824 464 -165
143 -344 374 -430 553 -42 88 -39 92 75 92 l80 0 20 -48 c31 -76 168 -273 252
-362 121 -128 317 -289 428 -350 33 -18 69 -39 80 -46 40 -26 244 -113 321
-138 43 -14 138 -37 209 -52 214 -43 534 -42 760 2 532 106 1025 475 1297 973
l17 31 91 0 c49 0 90 -2 90 -4z m-2269 -115 c48 -48 53 -93 14 -140 -51 -59
-117 -61 -177 -3 -34 32 -36 71 -7 118 47 77 109 86 170 25z m472 -10 c40 -43
45 -67 23 -109 -21 -40 -49 -62 -88 -68 -75 -13 -155 56 -143 121 6 32 48 82
80 96 39 17 88 2 128 -40z m460 9 c89 -99 -66 -233 -165 -143 -37 33 -47 64
-34 103 27 82 140 105 199 40z"/>
<path d="M6209 3539 c-6 -24 -33 -123 -58 -219 l-47 -175 63 -3 c35 -2 90 -2
122 0 l58 3 -57 213 c-32 117 -60 216 -63 219 -3 3 -11 -15 -18 -38z"/>
<path d="M2431 3346 c-50 -16 -89 -70 -102 -141 -21 -115 11 -236 73 -275 42
-27 126 -23 159 6 54 48 81 175 59 279 -10 47 -21 68 -50 97 -21 21 -46 38
-56 39 -11 0 -26 2 -34 4 -8 1 -31 -3 -49 -9z"/>
<path d="M3931 3346 c-50 -16 -89 -70 -102 -141 -21 -115 11 -236 73 -275 42
-27 126 -23 159 6 54 48 81 175 59 279 -10 47 -21 68 -50 97 -21 21 -46 38
-56 39 -11 0 -26 2 -34 4 -8 1 -31 -3 -49 -9z"/>
<path d="M925 3352 c-59 -21 -100 -69 -115 -139 -8 -32 -7 -32 34 -38 22 -3
97 -5 166 -3 l125 3 -2 39 c-3 46 -28 91 -65 119 -28 21 -108 31 -143 19z"/>
</g>
</svg>
